<?xml version="1.0" encoding="UTF-8" standalone="no"?>
<!-- Created with Inkscape (http://www.inkscape.org/) -->

<svg
   xmlns:dc="http://purl.org/dc/elements/1.1/"
   xmlns:cc="http://creativecommons.org/ns#"
   xmlns:rdf="http://www.w3.org/1999/02/22-rdf-syntax-ns#"
   xmlns:svg="http://www.w3.org/2000/svg"
   xmlns="http://www.w3.org/2000/svg"
   xmlns:sodipodi="http://sodipodi.sourceforge.net/DTD/sodipodi-0.dtd"
   xmlns:inkscape="http://www.inkscape.org/namespaces/inkscape"
   width="209.98026mm"
   height="225.77777mm"
   viewBox="0 0 744.02451 799.99997"
   id="svg2"
   version="1.1"
   inkscape:version="0.91 r13725"
   sodipodi:docname="CalophyllumFlowers.svg">
  <defs
     id="defs4">
    <pattern
       y="0"
       x="0"
       height="6"
       width="6"
       patternUnits="userSpaceOnUse"
       id="EMFhbasepattern" />
  </defs>
  <sodipodi:namedview
     id="base"
     pagecolor="#ffffff"
     bordercolor="#666666"
     borderopacity="1.0"
     inkscape:pageopacity="0.0"
     inkscape:pageshadow="2"
     inkscape:zoom="0.83750003"
     inkscape:cx="372.01226"
     inkscape:cy="399.99999"
     inkscape:document-units="px"
     inkscape:current-layer="layer1"
     showgrid="false"
     fit-margin-top="0"
     fit-margin-left="0"
     fit-margin-right="0"
     fit-margin-bottom="0"
     inkscape:window-width="1600"
     inkscape:window-height="837"
     inkscape:window-x="-8"
     inkscape:window-y="-8"
     inkscape:window-maximized="1" />
  <metadata
     id="metadata7">
    <rdf:RDF>
      <cc:Work
         rdf:about="">
        <dc:format>image/svg+xml</dc:format>
        <dc:type
           rdf:resource="http://purl.org/dc/dcmitype/StillImage" />
        <dc:title></dc:title>
      </cc:Work>
    </rdf:RDF>
  </metadata>
  <g
     inkscape:label="Layer 1"
     inkscape:groupmode="layer"
     id="layer1"
     transform="translate(-149.44225,946.5378)">
    <g
       id="g4309">
      <path
         style="fill:#23a65b;fill-opacity:1;fill-rule:evenodd;stroke:#000000;stroke-width:8.17610359px;stroke-linecap:butt;stroke-linejoin:round;stroke-miterlimit:4;stroke-dasharray:none;stroke-opacity:1"
         d="m 404.47352,-942.45 c -22.01265,80.50308 1.25688,211.94965 70.44,296.22634 0,0 35.84934,54.71741 35.2203,56.60421 l -54.7174,-42.13879 c -54.71652,-91.82362 -154.7164,-161.00585 -281.76092,-169.18212 6.91819,111.94977 126.41548,230.18899 279.24537,238.99399 l 44.65434,20.12525 c -11.32084,58.49102 -16.35253,127.67295 -35.84934,176.72994 -2.51673,5.66042 -5.03138,10.69181 -6.91819,15.72349 l -21.38391,-29.56018 c -44.65375,-93.08139 -132.70375,-145.28325 -229.55936,-153.45922 26.415,78.61687 86.1638,147.7988 182.39007,186.79302 l 47.79832,37.10621 c -2.51376,5.03169 -6.28856,10.69211 -9.43344,15.72349 -93.71132,-34.59067 -200.6294,-57.86139 -271.06941,-23.89945 62.89308,50.94379 150.94368,71.06963 250.31453,54.7174 -18.86807,25.78627 -40.25169,52.20068 -67.92506,89.30778 l 28.93115,22.01295 c 45.28337,-60.37694 96.8553,-118.86796 125.78615,-186.79242 l 74.84265,-23.27042 c 105.66031,-28.93114 186.79302,-102.51573 220.12592,-179.24579 -82.38989,11.32085 -191.82381,48.42795 -248.42713,135.84922 l -29.55988,15.09446 c 14.46542,-61.635 15.09446,-129.56006 37.10711,-186.79242 l 40.87983,6.28946 c 102.51572,-11.94988 211.94965,-43.39657 276.73012,-140.25187 -95.59723,-9.43404 -181.76162,18.86807 -267.92483,54.08778 22.64169,-24.52761 48.42796,-49.0561 83.64766,-76.10043 98.74182,-28.30211 198.7426,-108.80519 211.32062,-207.5473 -93.0817,16.35223 -184.90532,90.56615 -237.73532,179.87423 0,0 -86.1641,73.58547 -116.98115,119.49669 l -15.7232,-30.18802 C 513.2787,-777.66964 469.88214,-898.4247 404.47352,-942.45 Z"
         id="path4160"
         inkscape:connector-curvature="0" />
      <path
         style="fill:#f7ffee;fill-opacity:1;fill-rule:evenodd;stroke:none"
         d="m 410.13394,-926.09777 c 39.62206,66.03765 77.3582,172.327 81.76085,259.12012 -41.50976,-75.47228 -77.3582,-188.68011 -81.76085,-259.12012 z"
         id="path4162"
         inkscape:connector-curvature="0" />
      <path
         style="fill:#f7ffee;fill-opacity:1;fill-rule:evenodd;stroke:none"
         d="m 883.09022,-932.38693 c -46.54114,64.77988 -132.07561,144.02549 -214.46608,185.53435 54.08837,-70.44001 147.7988,-151.57212 214.46608,-185.53435 z"
         id="path4164"
         inkscape:connector-curvature="0" />
      <path
         style="fill:#f7ffee;fill-opacity:1;fill-rule:evenodd;stroke:none"
         d="m 854.78811,-704.71379 c -70.44089,46.54025 -184.9062,92.45266 -279.8747,103.14447 79.87493,-49.05699 201.88658,-94.33947 279.8747,-103.14447 z"
         id="path4166"
         inkscape:connector-curvature="0" />
      <path
         style="fill:#f7ffee;fill-opacity:1;fill-rule:evenodd;stroke:none"
         d="m 778.05806,-533.01612 c -60.37694,61.6356 -164.77947,133.96241 -259.11894,166.66717 69.18194,-66.66729 182.38947,-139.62284 259.11894,-166.66717 z"
         id="path4168"
         inkscape:connector-curvature="0" />
      <path
         style="fill:#f7ffee;fill-opacity:1;fill-rule:evenodd;stroke:none"
         d="m 178.68688,-795.27994 c 84.27699,38.99332 192.45314,118.86826 255.97466,201.88688 -92.45266,-46.54144 -203.77309,-134.59145 -255.97466,-201.88688 z"
         id="path4170"
         inkscape:connector-curvature="0" />
      <path
         style="fill:#f7ffee;fill-opacity:1;fill-rule:evenodd;stroke:none"
         d="m 209.50483,-527.3557 c 69.81127,33.96253 158.49032,102.51573 210.06314,172.95633 -76.10132,-40.25169 -167.92494,-115.72308 -210.06314,-172.95633 z"
         id="path4172"
         inkscape:connector-curvature="0" />
      <path
         style="fill:#f7ffee;fill-opacity:1;fill-rule:evenodd;stroke:none"
         d="m 163.59273,-315.40605 c 66.66668,-6.28946 162.89266,6.28945 232.70452,38.99391 -74.21421,4.40265 -175.47187,-12.57861 -232.70452,-38.99391 z"
         id="path4174"
         inkscape:connector-curvature="0" />
      <path
         style="fill:#f7e9dc;fill-opacity:1;fill-rule:nonzero;stroke:#000000;stroke-width:8.17610359px;stroke-linecap:round;stroke-linejoin:round;stroke-miterlimit:4;stroke-dasharray:none;stroke-opacity:1"
         d="m 648.49889,-429.24262 c 0,44.0256 -66.03825,44.0256 -66.03825,0 0,-44.02471 66.03825,-44.02471 66.03825,0 z"
         id="path4176"
         inkscape:connector-curvature="0" />
      <path
         style="fill:#f7e9dc;fill-opacity:1;fill-rule:nonzero;stroke:#000000;stroke-width:8.17610359px;stroke-linecap:round;stroke-linejoin:round;stroke-miterlimit:4;stroke-dasharray:none;stroke-opacity:1"
         d="m 599.4419,-461.94649 c 0,44.02471 -66.03736,44.02471 -66.03736,0 0,-44.0253 66.03736,-44.0253 66.03736,0 z"
         id="path4178"
         inkscape:connector-curvature="0" />
      <path
         style="fill:#f7e9dc;fill-opacity:1;fill-rule:nonzero;stroke:#000000;stroke-width:8.17610359px;stroke-linecap:round;stroke-linejoin:round;stroke-miterlimit:4;stroke-dasharray:none;stroke-opacity:1"
         d="m 647.24111,-488.99052 c 0,44.0253 -66.03825,44.0253 -66.03825,0 0,-44.0256 66.03825,-44.0256 66.03825,0 z"
         id="path4180"
         inkscape:connector-curvature="0" />
      <path
         style="fill:#f7e9dc;fill-opacity:1;fill-rule:nonzero;stroke:#000000;stroke-width:8.17610359px;stroke-linecap:round;stroke-linejoin:round;stroke-miterlimit:4;stroke-dasharray:none;stroke-opacity:1"
         d="m 695.03944,-466.34884 c 0,44.02441 -66.03766,44.02441 -66.03766,0 0,-44.0256 66.03766,-44.0256 66.03766,0 z"
         id="path4182"
         inkscape:connector-curvature="0" />
      <path
         style="fill:#f7e9dc;fill-opacity:1;fill-rule:nonzero;stroke:#000000;stroke-width:8.17610359px;stroke-linecap:round;stroke-linejoin:round;stroke-miterlimit:4;stroke-dasharray:none;stroke-opacity:1"
         d="m 710.13389,-416.03497 c 0,44.0256 -66.03765,44.0256 -66.03765,0 0,-44.65345 66.03765,-44.65345 66.03765,0 z"
         id="path4184"
         inkscape:connector-curvature="0" />
      <path
         style="fill:#f7e9dc;fill-opacity:1;fill-rule:nonzero;stroke:#000000;stroke-width:8.17610359px;stroke-linecap:round;stroke-linejoin:round;stroke-miterlimit:4;stroke-dasharray:none;stroke-opacity:1"
         d="m 677.42914,-373.89618 c 0,44.0253 -66.03736,44.0253 -66.03736,0 0,-44.0256 66.03736,-44.0256 66.03736,0 z"
         id="path4186"
         inkscape:connector-curvature="0" />
      <path
         style="fill:#f7e9dc;fill-opacity:1;fill-rule:nonzero;stroke:#000000;stroke-width:8.17610359px;stroke-linecap:round;stroke-linejoin:round;stroke-miterlimit:4;stroke-dasharray:none;stroke-opacity:1"
         d="m 620.82581,-374.52522 c 0,44.0256 -66.03824,44.0256 -66.03824,0 0,-44.02559 66.03824,-44.02559 66.03824,0 z"
         id="path4188"
         inkscape:connector-curvature="0" />
      <path
         style="fill:#f7e9dc;fill-opacity:1;fill-rule:nonzero;stroke:#000000;stroke-width:8.17610359px;stroke-linecap:round;stroke-linejoin:round;stroke-miterlimit:4;stroke-dasharray:none;stroke-opacity:1"
         d="m 593.15245,-406.60094 c 0,44.0256 -66.03736,44.0256 -66.03736,0 0,-44.0247 66.03736,-44.0247 66.03736,0 z"
         id="path4190"
         inkscape:connector-curvature="0" />
      <path
         style="fill:#f7e9dc;fill-opacity:1;fill-rule:nonzero;stroke:#000000;stroke-width:8.17610359px;stroke-linecap:round;stroke-linejoin:round;stroke-miterlimit:4;stroke-dasharray:none;stroke-opacity:1"
         d="m 420.19701,-423.5822 c 0,44.0256 -66.03825,44.0256 -66.03825,0 0,-44.02471 66.03825,-44.02471 66.03825,0 z"
         id="path4192"
         inkscape:connector-curvature="0" />
      <path
         style="fill:#f7e9dc;fill-opacity:1;fill-rule:nonzero;stroke:#000000;stroke-width:8.17610359px;stroke-linecap:round;stroke-linejoin:round;stroke-miterlimit:4;stroke-dasharray:none;stroke-opacity:1"
         d="m 371.14002,-456.9148 c 0,44.02441 -66.03736,44.02441 -66.03736,0 0,-44.0256 66.03736,-44.0256 66.03736,0 z"
         id="path4194"
         inkscape:connector-curvature="0" />
      <path
         style="fill:#f7e9dc;fill-opacity:1;fill-rule:nonzero;stroke:#000000;stroke-width:8.17610359px;stroke-linecap:round;stroke-linejoin:round;stroke-miterlimit:4;stroke-dasharray:none;stroke-opacity:1"
         d="m 418.93894,-483.3301 c 0,44.0253 -66.03825,44.0253 -66.03825,0 0,-44.0256 66.03825,-44.0256 66.03825,0 z"
         id="path4196"
         inkscape:connector-curvature="0" />
      <path
         style="fill:#f7e9dc;fill-opacity:1;fill-rule:nonzero;stroke:#000000;stroke-width:8.17610359px;stroke-linecap:round;stroke-linejoin:round;stroke-miterlimit:4;stroke-dasharray:none;stroke-opacity:1"
         d="m 467.36629,-461.31745 c 0,44.0247 -66.03735,44.0247 -66.03735,0 0,-44.0256 66.03735,-44.0256 66.03735,0 z"
         id="path4198"
         inkscape:connector-curvature="0" />
      <path
         style="fill:#f7e9dc;fill-opacity:1;fill-rule:nonzero;stroke:#000000;stroke-width:8.17610359px;stroke-linecap:round;stroke-linejoin:round;stroke-miterlimit:4;stroke-dasharray:none;stroke-opacity:1"
         d="m 481.83172,-411.00359 c 0,44.0256 -66.03736,44.0256 -66.03736,0 0,-44.02441 66.03736,-44.02441 66.03736,0 z"
         id="path4200"
         inkscape:connector-curvature="0" />
      <path
         style="fill:#f7e9dc;fill-opacity:1;fill-rule:nonzero;stroke:#000000;stroke-width:8.17610359px;stroke-linecap:round;stroke-linejoin:round;stroke-miterlimit:4;stroke-dasharray:none;stroke-opacity:1"
         d="m 449.12696,-368.23576 c 0,44.0253 -66.03736,44.0253 -66.03736,0 0,-44.0256 66.03736,-44.0256 66.03736,0 z"
         id="path4202"
         inkscape:connector-curvature="0" />
      <path
         style="fill:#f7e9dc;fill-opacity:1;fill-rule:nonzero;stroke:#000000;stroke-width:8.17610359px;stroke-linecap:round;stroke-linejoin:round;stroke-miterlimit:4;stroke-dasharray:none;stroke-opacity:1"
         d="m 392.52364,-369.49383 c 0,44.0256 -66.03825,44.0256 -66.03825,0 0,-44.0253 66.03825,-44.0253 66.03825,0 z"
         id="path4204"
         inkscape:connector-curvature="0" />
      <path
         style="fill:#f7e9dc;fill-opacity:1;fill-rule:nonzero;stroke:#000000;stroke-width:8.17610359px;stroke-linecap:round;stroke-linejoin:round;stroke-miterlimit:4;stroke-dasharray:none;stroke-opacity:1"
         d="m 364.85057,-401.56955 c 0,44.0256 -66.03736,44.0256 -66.03736,0 0,-44.02441 66.03736,-44.02441 66.03736,0 z"
         id="path4206"
         inkscape:connector-curvature="0" />
      <path
         style="fill:#f7e9dc;fill-opacity:1;fill-rule:nonzero;stroke:#000000;stroke-width:8.17610359px;stroke-linecap:round;stroke-linejoin:round;stroke-miterlimit:4;stroke-dasharray:none;stroke-opacity:1"
         d="m 646.61208,-748.11035 c 0,44.0253 -66.03825,44.0253 -66.03825,0 0,-44.02471 66.03825,-44.02471 66.03825,0 z"
         id="path4208"
         inkscape:connector-curvature="0" />
      <path
         style="fill:#f7e9dc;fill-opacity:1;fill-rule:nonzero;stroke:#000000;stroke-width:8.17610359px;stroke-linecap:round;stroke-linejoin:round;stroke-miterlimit:4;stroke-dasharray:none;stroke-opacity:1"
         d="m 597.55509,-780.81422 c 0,44.02471 -66.03735,44.02471 -66.03735,0 0,-44.02559 66.03735,-44.02559 66.03735,0 z"
         id="path4210"
         inkscape:connector-curvature="0" />
      <path
         style="fill:#f7e9dc;fill-opacity:1;fill-rule:nonzero;stroke:#000000;stroke-width:8.17610359px;stroke-linecap:round;stroke-linejoin:round;stroke-miterlimit:4;stroke-dasharray:none;stroke-opacity:1"
         d="m 645.35431,-807.85855 c 0,44.02471 -66.03825,44.02471 -66.03825,0 0,-44.0256 66.03825,-44.0256 66.03825,0 z"
         id="path4212"
         inkscape:connector-curvature="0" />
      <path
         style="fill:#f7e9dc;fill-opacity:1;fill-rule:nonzero;stroke:#000000;stroke-width:8.17610359px;stroke-linecap:round;stroke-linejoin:round;stroke-miterlimit:4;stroke-dasharray:none;stroke-opacity:1"
         d="m 693.15263,-785.21687 c 0,44.02471 -66.03766,44.02471 -66.03766,0 0,-44.02559 66.03766,-44.02559 66.03766,0 z"
         id="path4214"
         inkscape:connector-curvature="0" />
      <path
         style="fill:#f7e9dc;fill-opacity:1;fill-rule:nonzero;stroke:#000000;stroke-width:8.17610359px;stroke-linecap:round;stroke-linejoin:round;stroke-miterlimit:4;stroke-dasharray:none;stroke-opacity:1"
         d="m 708.24709,-734.9027 c 0,44.0253 -66.03766,44.0253 -66.03766,0 0,-44.02471 66.03766,-44.02471 66.03766,0 z"
         id="path4216"
         inkscape:connector-curvature="0" />
      <path
         style="fill:#f7e9dc;fill-opacity:1;fill-rule:nonzero;stroke:#000000;stroke-width:8.17610359px;stroke-linecap:round;stroke-linejoin:round;stroke-miterlimit:4;stroke-dasharray:none;stroke-opacity:1"
         d="m 674.91329,-692.76421 c 0,44.65374 -66.03735,44.65374 -66.03735,0 0,-44.0253 66.03735,-44.0253 66.03735,0 z"
         id="path4218"
         inkscape:connector-curvature="0" />
      <path
         style="fill:#f7e9dc;fill-opacity:1;fill-rule:nonzero;stroke:#000000;stroke-width:8.17610359px;stroke-linecap:round;stroke-linejoin:round;stroke-miterlimit:4;stroke-dasharray:none;stroke-opacity:1"
         d="m 618.93901,-693.39295 c 0,44.02441 -66.03825,44.02441 -66.03825,0 0,-44.02559 66.03825,-44.02559 66.03825,0 z"
         id="path4220"
         inkscape:connector-curvature="0" />
      <path
         style="fill:#f7e9dc;fill-opacity:1;fill-rule:nonzero;stroke:#000000;stroke-width:8.17610359px;stroke-linecap:round;stroke-linejoin:round;stroke-miterlimit:4;stroke-dasharray:none;stroke-opacity:1"
         d="m 591.26564,-725.46867 c 0,44.0253 -66.6661,44.0253 -66.6661,0 0,-44.02559 66.6661,-44.02559 66.6661,0 z"
         id="path4222"
         inkscape:connector-curvature="0" />
      <path
         style="fill:#f7e9dc;fill-opacity:1;fill-rule:nonzero;stroke:#000000;stroke-width:8.17610359px;stroke-linecap:round;stroke-linejoin:round;stroke-miterlimit:4;stroke-dasharray:none;stroke-opacity:1"
         d="m 552.90076,-592.76432 c 0,44.02471 -66.03736,44.02471 -66.03736,0 0,-44.0253 66.03736,-44.0253 66.03736,0 z"
         id="path4224"
         inkscape:connector-curvature="0" />
      <path
         style="fill:#f7e9dc;fill-opacity:1;fill-rule:nonzero;stroke:#000000;stroke-width:8.17610359px;stroke-linecap:round;stroke-linejoin:round;stroke-miterlimit:4;stroke-dasharray:none;stroke-opacity:1"
         d="m 503.84437,-625.46878 c 0,44.0253 -66.03795,44.0253 -66.03795,0 0,-44.02471 66.03795,-44.02471 66.03795,0 z"
         id="path4226"
         inkscape:connector-curvature="0" />
      <path
         style="fill:#f7e9dc;fill-opacity:1;fill-rule:nonzero;stroke:#000000;stroke-width:8.17610359px;stroke-linecap:round;stroke-linejoin:round;stroke-miterlimit:4;stroke-dasharray:none;stroke-opacity:1"
         d="m 551.64269,-652.51311 c 0,44.02559 -66.03736,44.02559 -66.03736,0 0,-44.02471 66.03736,-44.02471 66.03736,0 z"
         id="path4228"
         inkscape:connector-curvature="0" />
      <path
         style="fill:#f7e9dc;fill-opacity:1;fill-rule:nonzero;stroke:#000000;stroke-width:8.17610359px;stroke-linecap:round;stroke-linejoin:round;stroke-miterlimit:4;stroke-dasharray:none;stroke-opacity:1"
         d="m 600.07094,-629.87143 c 0,44.0256 -66.03736,44.0256 -66.03736,0 0,-44.02471 66.03736,-44.02471 66.03736,0 z"
         id="path4230"
         inkscape:connector-curvature="0" />
      <path
         style="fill:#f7e9dc;fill-opacity:1;fill-rule:nonzero;stroke:#000000;stroke-width:8.17610359px;stroke-linecap:round;stroke-linejoin:round;stroke-miterlimit:4;stroke-dasharray:none;stroke-opacity:1"
         d="m 614.53636,-579.55667 c 0,44.02471 -66.03825,44.02471 -66.03825,0 0,-44.65434 66.03825,-44.65434 66.03825,0 z"
         id="path4232"
         inkscape:connector-curvature="0" />
      <path
         style="fill:#f7e9dc;fill-opacity:1;fill-rule:nonzero;stroke:#000000;stroke-width:8.17610359px;stroke-linecap:round;stroke-linejoin:round;stroke-miterlimit:4;stroke-dasharray:none;stroke-opacity:1"
         d="m 581.8316,-537.41877 c 0,44.0256 -66.03736,44.0256 -66.03736,0 0,-44.02471 66.03736,-44.02471 66.03736,0 z"
         id="path4234"
         inkscape:connector-curvature="0" />
      <path
         style="fill:#f7e9dc;fill-opacity:1;fill-rule:nonzero;stroke:#000000;stroke-width:8.17610359px;stroke-linecap:round;stroke-linejoin:round;stroke-miterlimit:4;stroke-dasharray:none;stroke-opacity:1"
         d="m 525.22828,-538.04751 c 0,44.0253 -66.03825,44.0253 -66.03825,0 0,-44.02471 66.03825,-44.02471 66.03825,0 z"
         id="path4236"
         inkscape:connector-curvature="0" />
      <path
         style="fill:#f7e9dc;fill-opacity:1;fill-rule:nonzero;stroke:#000000;stroke-width:8.17610359px;stroke-linecap:round;stroke-linejoin:round;stroke-miterlimit:4;stroke-dasharray:none;stroke-opacity:1"
         d="m 497.55521,-570.12264 c 0,44.02471 -66.03736,44.02471 -66.03736,0 0,-44.0253 66.03736,-44.0253 66.03736,0 z"
         id="path4238"
         inkscape:connector-curvature="0" />
      <path
         style="fill:#f7e9dc;fill-opacity:1;fill-rule:nonzero;stroke:#000000;stroke-width:8.17610359px;stroke-linecap:round;stroke-linejoin:round;stroke-miterlimit:4;stroke-dasharray:none;stroke-opacity:1"
         d="m 337.17749,-666.34891 c 0,44.02471 -66.03735,44.02471 -66.03735,0 0,-44.0253 66.03735,-44.0253 66.03735,0 z"
         id="path4240"
         inkscape:connector-curvature="0" />
      <path
         style="fill:#f7e9dc;fill-opacity:1;fill-rule:nonzero;stroke:#000000;stroke-width:8.17610359px;stroke-linecap:round;stroke-linejoin:round;stroke-miterlimit:4;stroke-dasharray:none;stroke-opacity:1"
         d="m 288.1214,-699.6824 c 0,44.02471 -66.03795,44.02471 -66.03795,0 0,-44.0256 66.03795,-44.0256 66.03795,0 z"
         id="path4242"
         inkscape:connector-curvature="0" />
      <path
         style="fill:#f7e9dc;fill-opacity:1;fill-rule:nonzero;stroke:#000000;stroke-width:8.17610359px;stroke-linecap:round;stroke-linejoin:round;stroke-miterlimit:4;stroke-dasharray:none;stroke-opacity:1"
         d="m 336.54846,-726.0977 c 0,44.0256 -66.03736,44.0256 -66.03736,0 0,-44.0256 66.03736,-44.0256 66.03736,0 z"
         id="path4244"
         inkscape:connector-curvature="0" />
      <path
         style="fill:#f7e9dc;fill-opacity:1;fill-rule:nonzero;stroke:#000000;stroke-width:8.17610359px;stroke-linecap:round;stroke-linejoin:round;stroke-miterlimit:4;stroke-dasharray:none;stroke-opacity:1"
         d="m 384.34767,-704.08505 c 0,44.02471 -66.03736,44.02471 -66.03736,0 0,-44.0253 66.03736,-44.0253 66.03736,0 z"
         id="path4246"
         inkscape:connector-curvature="0" />
      <path
         style="fill:#f7e9dc;fill-opacity:1;fill-rule:nonzero;stroke:#000000;stroke-width:8.17610359px;stroke-linecap:round;stroke-linejoin:round;stroke-miterlimit:4;stroke-dasharray:none;stroke-opacity:1"
         d="m 399.44213,-653.77089 c 0,44.0253 -66.03825,44.0253 -66.03825,0 0,-44.0247 66.03825,-44.0247 66.03825,0 z"
         id="path4248"
         inkscape:connector-curvature="0" />
      <path
         style="fill:#f7e9dc;fill-opacity:1;fill-rule:nonzero;stroke:#000000;stroke-width:8.17610359px;stroke-linecap:round;stroke-linejoin:round;stroke-miterlimit:4;stroke-dasharray:none;stroke-opacity:1"
         d="m 366.10834,-611.00336 c 0,44.0256 -66.03736,44.0256 -66.03736,0 0,-44.0256 66.03736,-44.0256 66.03736,0 z"
         id="path4250"
         inkscape:connector-curvature="0" />
      <path
         style="fill:#f7e9dc;fill-opacity:1;fill-rule:nonzero;stroke:#000000;stroke-width:8.17610359px;stroke-linecap:round;stroke-linejoin:round;stroke-miterlimit:4;stroke-dasharray:none;stroke-opacity:1"
         d="m 309.50502,-612.26113 c 0,44.0253 -66.03825,44.0253 -66.03825,0 0,-44.0256 66.03825,-44.0256 66.03825,0 z"
         id="path4252"
         inkscape:connector-curvature="0" />
      <path
         style="fill:#f7e9dc;fill-opacity:1;fill-rule:nonzero;stroke:#000000;stroke-width:8.17610359px;stroke-linecap:round;stroke-linejoin:round;stroke-miterlimit:4;stroke-dasharray:none;stroke-opacity:1"
         d="m 281.83194,-644.33685 c 0,44.0253 -66.03795,44.0253 -66.03795,0 0,-44.02471 66.03795,-44.02471 66.03795,0 z"
         id="path4254"
         inkscape:connector-curvature="0" />
    </g>
  </g>
</svg>
